<?xml version="1.0" encoding="utf-8"?>
<!-- Generator: Adobe Illustrator 22.1.0, SVG Export Plug-In . SVG Version: 6.00 Build 0)  -->
<svg version="1.1" id="Ebene_1" xmlns="http://www.w3.org/2000/svg" xmlns:xlink="http://www.w3.org/1999/xlink" x="0px" y="0px"
	 viewBox="0 0 200 27.4056" style="enable-background:new 0 0 200 27.4056;" xml:space="preserve">
<style type="text/css">
	.st0{fill-rule:evenodd;clip-rule:evenodd;fill:#91C300;}
</style>
<g>
	<path d="M128.9712,7.5482c-0.2872-0.6085-1.0667-0.6893-3.2678-0.6893h-19.6261l-7.2571,13.7096l20.419-0.0024
		c3.0348-0.0045,4.4637-1.9005,5.3472-3.639c0,0,4.0951-7.7709,4.1488-7.9162c0.1334-0.3136,0.2755-0.6774,0.3032-0.9015
		C129.0574,7.9566,129.0968,7.8144,128.9712,7.5482z M117.8038,16.7322c-0.23,0.1769-0.9494,0.1802-0.9494,0.1802h-9.6758
		l3.3514-6.2994h8.7766c1.1928-0.0206,1.4275,0.0613,1.5185,0.3121c0.0338,0.0938,0.0277,0.2321-0.11,0.5503
		c0,0-1.714,3.2306-2.4977,4.7121C118.0654,16.4749,117.9718,16.6031,117.8038,16.7322z"/>
	<path d="M64.1013,10.6227l1.9854-3.7638l-20.88,0.0074c-3.6611,0.0069-4.206,1.0085-4.6906,1.8765
		c-1.7905,3.3499-5.2337,9.8479-5.2368,9.8542c-0.1031,0.2406-0.2131,0.5527-0.194,0.8491c0.0104,0.1492,0.0533,0.293,0.1468,0.4234
		c0.2239,0.3073,0.8264,0.7017,2.5229,0.6982l21.0749,0.0052l1.9395-3.6379l-18.0517-0.0056l0.6921-1.2749l14.1879,0.0024
		l2.0092-3.8183l-14.1767-0.0065l0.6371-1.2092H64.1013z"/>
	<polygon points="103.5859,6.8719 96.1097,6.8719 88.8329,20.5808 96.3318,20.5815 	"/>
	<path d="M155.8602,7.5211c-0.2906-0.413-0.9121-0.6598-2.6268-0.6566h-18.4229c-2.8391,0.0045-3.2852,0.8645-3.817,1.8256
		l-6.2992,11.892h6.9931l2.6173-4.9329l11.2869,0.0035l-2.6095,4.9355h6.6756l6.2728-11.8684c0,0,0.1451-0.2523,0.113-0.6514
		C156.0291,7.8882,155.9823,7.6944,155.8602,7.5211z M136.7304,11.0932c0,0,0.201-0.4641,0.9485-0.4617h9.7312
		c0.6046-0.0011,0.644,0.3203,0.5652,0.4942c-0.0398,0.0886-0.7948,1.5183-0.7948,1.5183l-11.2817,0.0045L136.7304,11.0932z"/>
	<path d="M92.5365,7.5047c-0.2231-0.264-0.7735-0.6287-2.4636-0.625L68.0907,6.8632l-7.2555,13.7245l6.715-0.0145l5.2679-9.9473
		l11.6434-0.0067c0,0,0.4964-0.0002,0.3231,0.3673c-0.1113,0.2369-0.2356,0.4643-0.298,0.5682
		c-0.1002,0.1663-0.1105,0.2837-0.5522,0.2837c-0.3941,0-8.0841,0-8.0841,0l-2.0746,3.9119l6.4018,4.8305h8.6692l-6.281-4.9152
		l3.2055-0.0059c2.5251-0.0595,3.2665-0.4758,4.0223-1.7654c0,0,2.8378-5.4237,2.8438-5.4436
		c0.068-0.1655,0.12-0.2648,0.1148-0.4379C92.7474,7.8382,92.7127,7.7115,92.5365,7.5047z"/>
	<path d="M25.5433,6.86l-6.4421,6.5277L17.2293,6.86c0,0-6.8428-0.0011-8.2842,0C7.505,6.8613,7.0177,7.4311,6.5032,8.3447
		C6.4603,8.4274,0,20.5867,0,20.5867l6.8865-0.0024l5.2771-9.9616h1.4449l2.1924,7.1347h4.6794l7.8467-7.1427h1.8693l-5.2991,9.9389
		l6.9051,0.0006l6.3135-11.9169c0.6349-1.4661,0.4158-1.7775-1.4648-1.777L25.5433,6.86z"/>
</g>
<g>
	<path class="st0" d="M192.8152,27.4056c1.1517,0,1.3249-0.5752,0.3859-1.2781l-9.1218-7.4084
		c-0.9386-0.7029-2.1145-0.665-3.134,0.0615l-2.3912,1.5239c-1.1837,0.785-2.639,0.921-3.4913,0.3946
		c-0.8541-0.5267-2.3782-0.476-3.3839,0.112l-9.4545,5.5254c-1.0072,0.588-0.889,1.0691,0.2607,1.0691H192.8152z"/>
	<path class="st0" d="M199.4149,22.0164c1.7385,1.7385-0.8242,2.1186-2.1491,1.1339l-13.5911-10.4818
		c-0.9559-0.6757-2.2903-0.5115-3.3246,0.2148l-2.5528,1.7c-0.9962,0.6913-2.441,0.9087-3.4467,0.317l-0.1421-0.0844
		c-1.0053-0.5908-2.6398-0.5711-3.6308,0.0453l-13.1272,8.5642c-1.0711,0.6873-2.8538,0.0773-1.5179-1.4083l20.1885-21.4762
		c0.7146-0.7151,2.422-0.7272,3.1492,0L199.4149,22.0164z"/>
</g>
</svg>
